<svg xmlns="http://www.w3.org/2000/svg" viewBox="0 0 512 512">
  <rect width="512" height="512" fill="#292524" />

  <!-- Simple, readable ghost silhouette for small app icons -->
  <path
    d="M256 92c-78 0-142 64-142 142v190c0 12 13 19 23 12l30-20 30 20 29-19 29 19 30-20 30 20 30-20c10-7 23 0 23-12V234c0-78-64-142-142-142z"
    fill="#f3e8ff"
  />

  <!-- Face -->
  <circle cx="216" cy="232" r="18" fill="#292524" />
  <circle cx="296" cy="232" r="18" fill="#292524" />
  <path d="M256 262c-10 0-18 10-18 22s8 22 18 22 18-10 18-22-8-22-18-22z" fill="#292524" />
</svg>
